<mxfile host="app.diagrams.net" agent="Mozilla/5.0 (Macintosh; Intel Mac OS X 10_15_7) AppleWebKit/537.36 (KHTML, like Gecko) Chrome/129.0.0.0 Safari/537.36" version="24.7.17">
  <diagram id="WvHjm1HEhhVKs3oMtiiu" name="Page-1">
    <mxGraphModel dx="628" dy="449" grid="1" gridSize="10" guides="1" tooltips="1" connect="1" arrows="1" fold="1" page="1" pageScale="1" pageWidth="1100" pageHeight="850" math="1" shadow="0">
      <root>
        <mxCell id="0" />
        <mxCell id="1" parent="0" />
        <mxCell id="xBYAKWbB2OGDabFkx_kC-114" value="" style="rounded=1;shape=corner;whiteSpace=wrap;html=1;fillColor=none;dx=50;dy=50;dashed=1;" parent="1" vertex="1">
          <mxGeometry x="97" y="70" width="180" height="190" as="geometry" />
        </mxCell>
        <mxCell id="xBYAKWbB2OGDabFkx_kC-115" value="" style="rounded=1;whiteSpace=wrap;html=1;fillColor=none;dashed=1;strokeColor=#AFAFAF;" parent="1" vertex="1">
          <mxGeometry x="227" y="140" width="50" height="120" as="geometry" />
        </mxCell>
        <mxCell id="xBYAKWbB2OGDabFkx_kC-116" value="" style="rounded=1;whiteSpace=wrap;html=1;fillColor=none;aspect=fixed;dashed=1;strokeColor=#afafaf;" parent="1" vertex="1">
          <mxGeometry x="157" y="210" width="50" height="50" as="geometry" />
        </mxCell>
        <mxCell id="xBYAKWbB2OGDabFkx_kC-117" value="" style="rounded=1;whiteSpace=wrap;html=1;fillColor=none;aspect=fixed;dashed=1;strokeColor=#afafaf;" parent="1" vertex="1">
          <mxGeometry x="157" y="140" width="50" height="50" as="geometry" />
        </mxCell>
        <mxCell id="xBYAKWbB2OGDabFkx_kC-118" value="&lt;font style=&quot;font-size: 19px;&quot;&gt;$$x$$&lt;/font&gt;" style="rounded=1;whiteSpace=wrap;html=1;fillColor=#ebebeb;aspect=fixed;strokeColor=#AFAFAF;" parent="1" vertex="1">
          <mxGeometry x="102" y="215" width="40" height="40" as="geometry" />
        </mxCell>
        <mxCell id="xBYAKWbB2OGDabFkx_kC-119" value="&lt;font style=&quot;font-size: 17px;&quot;&gt;$$8$$&lt;/font&gt;" style="rounded=1;whiteSpace=wrap;html=1;fillColor=#ebebeb;aspect=fixed;strokeColor=#AFAFAF;" parent="1" vertex="1">
          <mxGeometry x="162" y="215" width="40" height="40" as="geometry" />
        </mxCell>
        <mxCell id="xBYAKWbB2OGDabFkx_kC-120" style="rounded=0;orthogonalLoop=1;jettySize=auto;html=1;exitX=0.25;exitY=1;exitDx=0;exitDy=0;entryX=0.279;entryY=0.736;entryDx=0;entryDy=0;strokeColor=#AFAFAF;startSize=6;endSize=2;entryPerimeter=0;" parent="1" source="xBYAKWbB2OGDabFkx_kC-122" target="xBYAKWbB2OGDabFkx_kC-114" edge="1">
          <mxGeometry relative="1" as="geometry">
            <mxPoint x="137" y="200" as="targetPoint" />
          </mxGeometry>
        </mxCell>
        <mxCell id="xBYAKWbB2OGDabFkx_kC-121" style="rounded=0;orthogonalLoop=1;jettySize=auto;html=1;exitX=0.75;exitY=1;exitDx=0;exitDy=0;entryX=0.699;entryY=0.001;entryDx=0;entryDy=0;strokeColor=#AFAFAF;endSize=2;entryPerimeter=0;" parent="1" source="xBYAKWbB2OGDabFkx_kC-122" target="xBYAKWbB2OGDabFkx_kC-116" edge="1">
          <mxGeometry relative="1" as="geometry" />
        </mxCell>
        <mxCell id="xBYAKWbB2OGDabFkx_kC-122" value="&lt;font style=&quot;font-size: 17px;&quot;&gt;$$+$$&lt;/font&gt;" style="rounded=1;whiteSpace=wrap;html=1;fillColor=#ebebeb;aspect=fixed;strokeColor=#AFAFAF;" parent="1" vertex="1">
          <mxGeometry x="162" y="145" width="40" height="40" as="geometry" />
        </mxCell>
        <mxCell id="xBYAKWbB2OGDabFkx_kC-123" style="edgeStyle=orthogonalEdgeStyle;rounded=0;orthogonalLoop=1;jettySize=auto;html=1;exitX=0.25;exitY=1;exitDx=0;exitDy=0;entryX=0.299;entryY=-0.005;entryDx=0;entryDy=0;entryPerimeter=0;strokeColor=#afafaf;endSize=2;" parent="1" source="xBYAKWbB2OGDabFkx_kC-125" target="xBYAKWbB2OGDabFkx_kC-117" edge="1">
          <mxGeometry relative="1" as="geometry" />
        </mxCell>
        <mxCell id="xBYAKWbB2OGDabFkx_kC-124" style="edgeStyle=orthogonalEdgeStyle;rounded=1;orthogonalLoop=1;jettySize=auto;html=1;exitX=0.75;exitY=1;exitDx=0;exitDy=0;entryX=0.859;entryY=0;entryDx=0;entryDy=0;strokeColor=#afafaf;endSize=2;entryPerimeter=0;" parent="1" source="xBYAKWbB2OGDabFkx_kC-125" target="xBYAKWbB2OGDabFkx_kC-116" edge="1">
          <mxGeometry relative="1" as="geometry">
            <Array as="points">
              <mxPoint x="192" y="130" />
              <mxPoint x="217" y="130" />
              <mxPoint x="217" y="200" />
              <mxPoint x="200" y="200" />
              <mxPoint x="200" y="210" />
            </Array>
          </mxGeometry>
        </mxCell>
        <mxCell id="xBYAKWbB2OGDabFkx_kC-125" value="&lt;font style=&quot;font-size: 17px;&quot;&gt;$$-$$&lt;/font&gt;" style="rounded=1;whiteSpace=wrap;html=1;fillColor=#ebebeb;aspect=fixed;strokeColor=#AFAFAF;" parent="1" vertex="1">
          <mxGeometry x="162" y="75" width="40" height="40" as="geometry" />
        </mxCell>
        <mxCell id="xBYAKWbB2OGDabFkx_kC-126" style="edgeStyle=orthogonalEdgeStyle;rounded=0;orthogonalLoop=1;jettySize=auto;html=1;exitX=0.75;exitY=1;exitDx=0;exitDy=0;entryX=0.696;entryY=0;entryDx=0;entryDy=0;entryPerimeter=0;endSize=2;strokeColor=#AFAFAF;" parent="1" source="xBYAKWbB2OGDabFkx_kC-128" target="xBYAKWbB2OGDabFkx_kC-115" edge="1">
          <mxGeometry relative="1" as="geometry" />
        </mxCell>
        <mxCell id="xBYAKWbB2OGDabFkx_kC-128" value="&lt;font style=&quot;font-size: 17px;&quot;&gt;$$+$$&lt;/font&gt;" style="rounded=1;whiteSpace=wrap;html=1;fillColor=#ebebeb;aspect=fixed;strokeColor=#AFAFAF;" parent="1" vertex="1">
          <mxGeometry x="232" y="75" width="40" height="40" as="geometry" />
        </mxCell>
        <mxCell id="xBYAKWbB2OGDabFkx_kC-129" style="edgeStyle=orthogonalEdgeStyle;rounded=1;orthogonalLoop=1;jettySize=auto;html=1;exitX=0.25;exitY=1;exitDx=0;exitDy=0;entryX=0.96;entryY=0.03;entryDx=0;entryDy=0;endSize=2;strokeColor=#AFAFAF;entryPerimeter=0;" parent="1" source="xBYAKWbB2OGDabFkx_kC-131" target="xBYAKWbB2OGDabFkx_kC-116" edge="1">
          <mxGeometry relative="1" as="geometry">
            <Array as="points">
              <mxPoint x="242" y="200" />
              <mxPoint x="217" y="200" />
              <mxPoint x="217" y="212" />
            </Array>
          </mxGeometry>
        </mxCell>
        <mxCell id="xBYAKWbB2OGDabFkx_kC-130" style="edgeStyle=orthogonalEdgeStyle;rounded=1;orthogonalLoop=1;jettySize=auto;html=1;exitX=0.75;exitY=1;exitDx=0;exitDy=0;endSize=2;strokeColor=#AFAFAF;entryX=0.96;entryY=0.029;entryDx=0;entryDy=0;entryPerimeter=0;" parent="1" source="xBYAKWbB2OGDabFkx_kC-131" target="xBYAKWbB2OGDabFkx_kC-116" edge="1">
          <mxGeometry relative="1" as="geometry">
            <Array as="points">
              <mxPoint x="262" y="200" />
              <mxPoint x="217" y="200" />
              <mxPoint x="217" y="212" />
            </Array>
          </mxGeometry>
        </mxCell>
        <mxCell id="xBYAKWbB2OGDabFkx_kC-131" value="&lt;font style=&quot;font-size: 17px;&quot;&gt;$$-$$&lt;/font&gt;" style="rounded=1;whiteSpace=wrap;html=1;fillColor=#ebebeb;aspect=fixed;strokeColor=#AFAFAF;" parent="1" vertex="1">
          <mxGeometry x="232" y="145" width="40" height="40" as="geometry" />
        </mxCell>
        <mxCell id="xBYAKWbB2OGDabFkx_kC-132" value="&lt;font style=&quot;font-size: 17px;&quot;&gt;$$0$$&lt;/font&gt;" style="rounded=1;whiteSpace=wrap;html=1;fillColor=#ebebeb;aspect=fixed;strokeColor=#AFAFAF;fontStyle=4" parent="1" vertex="1">
          <mxGeometry x="232" y="215" width="40" height="40" as="geometry" />
        </mxCell>
        <mxCell id="xBYAKWbB2OGDabFkx_kC-136" style="edgeStyle=orthogonalEdgeStyle;rounded=1;orthogonalLoop=1;jettySize=auto;html=1;entryX=0.97;entryY=0.962;entryDx=0;entryDy=0;entryPerimeter=0;endSize=2;strokeColor=#AFAFAF;exitX=0.25;exitY=1;exitDx=0;exitDy=0;" parent="1" source="xBYAKWbB2OGDabFkx_kC-128" edge="1">
          <mxGeometry relative="1" as="geometry">
            <Array as="points">
              <mxPoint x="242" y="130" />
              <mxPoint x="287" y="130" />
              <mxPoint x="287" y="270" />
              <mxPoint x="145" y="270" />
            </Array>
            <mxPoint x="242" y="115" as="sourcePoint" />
            <mxPoint x="145" y="258" as="targetPoint" />
          </mxGeometry>
        </mxCell>
        <mxCell id="GxVwanjRkrD1fkN1Xo48-5" value="&lt;font face=&quot;Helvetica&quot;&gt;$$e2$$&lt;/font&gt;" style="text;html=1;strokeColor=none;fillColor=none;align=center;verticalAlign=middle;whiteSpace=wrap;rounded=0;" parent="1" vertex="1">
          <mxGeometry x="152" y="127" width="16" height="11" as="geometry" />
        </mxCell>
        <mxCell id="GxVwanjRkrD1fkN1Xo48-6" value="&lt;font face=&quot;Helvetica&quot;&gt;$$e1$$&lt;/font&gt;" style="text;html=1;strokeColor=none;fillColor=none;align=center;verticalAlign=middle;whiteSpace=wrap;rounded=0;" parent="1" vertex="1">
          <mxGeometry x="161" y="197" width="16" height="11" as="geometry" />
        </mxCell>
        <mxCell id="GxVwanjRkrD1fkN1Xo48-7" value="&lt;font face=&quot;Helvetica&quot;&gt;$$e0$$&lt;/font&gt;" style="text;html=1;strokeColor=none;fillColor=none;align=center;verticalAlign=middle;whiteSpace=wrap;rounded=0;fontColor=#000000;" parent="1" vertex="1">
          <mxGeometry x="92" y="57" width="16" height="11" as="geometry" />
        </mxCell>
        <mxCell id="GxVwanjRkrD1fkN1Xo48-8" value="&lt;font face=&quot;Helvetica&quot;&gt;$$e4$$&lt;/font&gt;" style="text;html=1;strokeColor=none;fillColor=none;align=center;verticalAlign=middle;whiteSpace=wrap;rounded=0;" parent="1" vertex="1">
          <mxGeometry x="222" y="127" width="16" height="11" as="geometry" />
        </mxCell>
      </root>
    </mxGraphModel>
  </diagram>
</mxfile>
